<svg xmlns="http://www.w3.org/2000/svg" xmlns:xlink="http://www.w3.org/1999/xlink" width="1161" zoomAndPan="magnify" viewBox="0 0 870.75 253.499997" height="338" preserveAspectRatio="xMidYMid meet" version="1.0"><defs><g/><clipPath id="8c7f8b6a89"><path d="M 3.453125 57.164062 L 197 57.164062 L 197 247.191406 L 3.453125 247.191406 Z M 3.453125 57.164062 " clip-rule="nonzero"/></clipPath><clipPath id="32eb194ebd"><path d="M 25.90625 57.164062 L 174.378906 57.164062 C 180.332031 57.164062 186.046875 59.527344 190.257812 63.738281 C 194.46875 67.949219 196.832031 73.660156 196.832031 79.617188 L 196.832031 224.726562 C 196.832031 230.679688 194.46875 236.390625 190.257812 240.601562 C 186.046875 244.816406 180.332031 247.179688 174.378906 247.179688 L 25.90625 247.179688 C 19.953125 247.179688 14.242188 244.816406 10.027344 240.601562 C 5.816406 236.390625 3.453125 230.679688 3.453125 224.726562 L 3.453125 79.617188 C 3.453125 73.660156 5.816406 67.949219 10.027344 63.738281 C 14.242188 59.527344 19.953125 57.164062 25.90625 57.164062 Z M 25.90625 57.164062 " clip-rule="nonzero"/></clipPath><clipPath id="6066fac282"><path d="M 197 5 L 442 5 L 442 248 L 197 248 Z M 197 5 " clip-rule="nonzero"/></clipPath><clipPath id="04f9794c55"><path d="M 189.066406 88.339844 L 359.898438 -3.054688 L 449.542969 164.5 L 278.714844 255.894531 Z M 189.066406 88.339844 " clip-rule="nonzero"/></clipPath><clipPath id="1c564c1be2"><path d="M 189.070312 88.339844 L 362.140625 -4.257812 L 451.972656 163.648438 L 278.902344 256.246094 Z M 189.070312 88.339844 " clip-rule="nonzero"/></clipPath><clipPath id="89e15bf337"><path d="M 208.867188 77.746094 L 339.78125 7.707031 C 345.03125 4.898438 351.183594 4.289062 356.882812 6.015625 C 362.582031 7.742188 367.363281 11.660156 370.171875 16.914062 L 438.625 144.859375 C 441.4375 150.109375 442.042969 156.261719 440.316406 161.960938 C 438.589844 167.664062 434.671875 172.441406 429.421875 175.253906 L 298.507812 245.292969 C 293.257812 248.101562 287.105469 248.710938 281.40625 246.984375 C 275.707031 245.257812 270.925781 241.335938 268.117188 236.085938 L 199.660156 108.140625 C 196.851562 102.890625 196.242188 96.738281 197.96875 91.035156 C 199.695312 85.335938 203.617188 80.554688 208.867188 77.746094 Z M 208.867188 77.746094 " clip-rule="nonzero"/></clipPath></defs><g clip-path="url(#8c7f8b6a89)"><g clip-path="url(#32eb194ebd)"><path stroke-linecap="butt" transform="matrix(0.742305, 0, 0, 0.742305, 3.452235, 57.162121)" fill="none" stroke-linejoin="miter" d="M 30.249058 0.00261577 L 230.264866 0.00261577 C 238.284654 0.00261577 245.983439 3.186324 251.656228 8.859113 C 257.329017 14.531902 260.512725 22.225425 260.512725 30.250475 L 260.512725 225.735419 C 260.512725 233.755206 257.329017 241.448729 251.656228 247.121518 C 245.983439 252.799569 238.284654 255.983277 230.264866 255.983277 L 30.249058 255.983277 C 22.229271 255.983277 14.535748 252.799569 8.857697 247.121518 C 3.184908 241.448729 0.00119961 233.755206 0.00119961 225.735419 L 0.00119961 30.250475 C 0.00119961 22.225425 3.184908 14.531902 8.857697 8.859113 C 14.535748 3.186324 22.229271 0.00261577 30.249058 0.00261577 Z M 30.249058 0.00261577 " stroke="#00fffa" stroke-width="52.435646" stroke-opacity="1" stroke-miterlimit="4"/></g></g><g clip-path="url(#6066fac282)"><g clip-path="url(#04f9794c55)"><g clip-path="url(#1c564c1be2)"><g clip-path="url(#89e15bf337)"><path stroke-linecap="butt" transform="matrix(0.654515, -0.35018, 0.35018, 0.654515, 189.068496, 88.340272)" fill="none" stroke-linejoin="miter" d="M 30.250316 -0.0017243 L 230.265353 0.00157891 C 238.286384 0.00189884 245.98161 3.187978 251.654072 8.860793 C 257.326535 14.533608 260.515929 22.226064 260.513127 30.251735 L 260.512683 225.732503 C 260.517004 233.756017 257.326284 241.44876 251.65347 247.121222 C 245.978172 252.798325 238.288199 255.983079 230.264685 255.987399 L 30.249648 255.984096 C 22.228617 255.983776 14.533391 252.797697 8.860929 247.124882 C 3.188466 241.452067 0.0015543 233.754971 0.00187422 225.73394 L -0.00232248 30.25069 C -0.00200256 22.229658 3.184077 14.534432 8.859374 8.85733 C 14.532189 3.184868 22.229285 -0.00204423 30.250316 -0.0017243 Z M 30.250316 -0.0017243 " stroke="#f3c961" stroke-width="52.435646" stroke-opacity="1" stroke-miterlimit="4"/></g></g></g></g><g fill="#ffffff" fill-opacity="1"><g transform="translate(425.621532, 241.945181)"><g><path d="M 91.421875 0 L 51.34375 -130.59375 L 50.328125 -130.59375 C 51.765625 -104.019531 52.484375 -86.296875 52.484375 -77.421875 L 52.484375 0 L 20.953125 0 L 20.953125 -166.453125 L 69 -166.453125 L 108.390625 -39.171875 L 109.078125 -39.171875 L 150.859375 -166.453125 L 198.90625 -166.453125 L 198.90625 0 L 166 0 L 166 -78.78125 C 166 -82.5 166.054688 -86.785156 166.171875 -91.640625 C 166.285156 -96.503906 166.796875 -109.410156 167.703125 -130.359375 L 166.6875 -130.359375 L 123.765625 0 Z M 91.421875 0 "/></g></g></g><g fill="#ffffff" fill-opacity="1"><g transform="translate(685.830651, 247.738027)"><g><path d="M 138.734375 -74.21875 L 107.71875 -57.625 L 73.828125 -120.96875 L 15.703125 -89.875 L 49.59375 -26.53125 L 18.46875 -9.890625 L -60.046875 -156.65625 L -28.921875 -173.296875 L 1.84375 -115.78125 L 59.96875 -146.875 L 29.203125 -204.390625 L 60.21875 -220.984375 Z M 138.734375 -74.21875 "/></g></g></g><g fill="#ffffff" fill-opacity="1"><g transform="translate(791.103424, 233.026912)"><g><path d="M 25.375 0 L 14.25 -36.234375 L 13.96875 -36.234375 C 14.363281 -28.867188 14.5625 -23.953125 14.5625 -21.484375 L 14.5625 0 L 5.8125 0 L 5.8125 -46.1875 L 19.140625 -46.1875 L 30.078125 -10.875 L 30.265625 -10.875 L 41.859375 -46.1875 L 55.1875 -46.1875 L 55.1875 0 L 46.0625 0 L 46.0625 -21.859375 C 46.0625 -22.890625 46.078125 -24.078125 46.109375 -25.421875 C 46.140625 -26.773438 46.28125 -30.359375 46.53125 -36.171875 L 46.25 -36.171875 L 34.34375 0 Z M 25.375 0 "/></g></g></g></svg>